<svg xmlns="http://www.w3.org/2000/svg" viewBox="0 0 420.14 420.15"><defs><style>.cls-1{fill:#fff;}.cls-2{fill:#113356;}</style></defs><title>Fichier 10</title><g id="Calque_2" data-name="Calque 2"><g id="Calque_1-2" data-name="Calque 1"><rect class="cls-1" x="190.52" y="335.9" width="41.4" height="20.69" rx="0.85"/><path class="cls-1" d="M191.31,273a.86.86,0,0,1-.85-.86V253.29a.85.85,0,0,1,.85-.85h39.85a.85.85,0,0,1,.85.85v18.89a.86.86,0,0,1-.85.86Z"/><path class="cls-1" d="M252.92,295v18.87a.85.85,0,0,1-.85.85H170.5a.86.86,0,0,1-.86-.85V295a.86.86,0,0,1,.86-.85h81.57A.85.85,0,0,1,252.92,295Z"/><path class="cls-1" d="M343,147.64a.86.86,0,0,0-1.21-.37l-16.17,9.3-1.18-.32-9.56-16.65.31-1.17,16.11-9.3a.85.85,0,0,0,.3-1.18c-7.39-11.87-25.06-29.57-37.74-37.78l-1.2.3-9.32,16.13a.86.86,0,0,1-1.17.31l-16.65-9.57c-.12-.46-.19-.72-.32-1.17l9.69-16.84a3.82,3.82,0,0,0-.47-.4,141.55,141.55,0,0,0-41.25-12.8,2.22,2.22,0,0,0-2.7,1.5q-8.93,18-18,36c-.16.33-.34.66-.53,1h-1.49c-.17-.3-.32-.58-.46-.86C204.05,91.86,198,80,192.17,68c-.85-1.74-1.8-2-3.53-1.77a144.34,144.34,0,0,0-30.71,8.35c-3.22,1.27-6.37,2.74-9.61,4.17a.87.87,0,0,0-.4,1.21l9.34,16.23L157,97.34l-16.66,9.57-1.17-.31-9.34-16.17-1.24-.28a152.29,152.29,0,0,0-37.68,37.73l.28,1.23,16.14,9.32.31,1.17L98,156.26l-1.17.31-16.18-9.31-1.2.38a146.29,146.29,0,0,0-14.31,62.09.85.85,0,0,0,.85.86H189.39a.86.86,0,0,1,.85.78c1.38,13.69,12,20,20.69,20a20.3,20.3,0,0,0,13-4.35,21,21,0,0,0,8.19-15.75.85.85,0,0,1,.85-.8H356.47a.85.85,0,0,0,.85-.87A146.64,146.64,0,0,0,343,147.64ZM232,189.5H190.41V169H232Zm20.91-41.67H169.66V127.21h83.21Z"/><path class="cls-1" d="M360.19,0H60A60,60,0,0,0,0,60V360.2a60,60,0,0,0,60,59.95H360.19a60,60,0,0,0,59.95-59.95V60A60,60,0,0,0,360.19,0Zm18,213.88c-1.81,90.64-76,163.74-167,163.62A167,167,0,0,1,44.27,210.62c-.12-91,73-165.2,163.63-167C302.41,41.74,380,119.37,378.15,213.88Z"/><path class="cls-2" d="M207.9,43.62c-90.65,1.8-163.75,76-163.63,167A167,167,0,0,0,211.15,377.5c91,.12,165.19-73,167-163.62C380,119.37,302.41,41.74,207.9,43.62Zm24,312.12a.85.85,0,0,1-.85.85h-39.7a.85.85,0,0,1-.85-.85v-19a.85.85,0,0,1,.85-.85h39.7a.85.85,0,0,1,.85.85Zm21-41.87a.85.85,0,0,1-.85.85H170.5a.86.86,0,0,1-.86-.85V295a.86.86,0,0,1,.86-.85h81.57a.85.85,0,0,1,.85.85Zm-62.46-41.69V253.29a.85.85,0,0,1,.85-.85h39.85a.85.85,0,0,1,.85.85v18.89a.86.86,0,0,1-.85.86H191.31A.86.86,0,0,1,190.46,272.18Zm166-61.68H233a.85.85,0,0,0-.85.8,21,21,0,0,1-8.19,15.75,20.3,20.3,0,0,1-13,4.35c-8.71,0-19.31-6.34-20.69-20a.86.86,0,0,0-.85-.78H66a.85.85,0,0,1-.85-.86,146.29,146.29,0,0,1,14.31-62.09l1.2-.38,16.18,9.31,1.17-.31,9.58-16.66-.31-1.17-16.14-9.32-.28-1.23a152.29,152.29,0,0,1,37.68-37.73l1.24.28,9.34,16.17,1.17.31L157,97.34l.31-1.17-9.34-16.23a.87.87,0,0,1,.4-1.21c3.24-1.43,6.39-2.9,9.61-4.17a144.34,144.34,0,0,1,30.71-8.35c1.73-.27,2.68,0,3.53,1.77C198,80,204.05,91.86,210,103.79c.14.28.29.56.46.86H212c.19-.35.37-.68.53-1q9-18,18-36a2.22,2.22,0,0,1,2.7-1.5,141.55,141.55,0,0,1,41.25,12.8,3.82,3.82,0,0,1,.47.4l-9.69,16.84c.13.45.2.71.32,1.17l16.65,9.57a.86.86,0,0,0,1.17-.31l9.32-16.13,1.2-.3c12.68,8.21,30.35,25.91,37.74,37.78a.85.85,0,0,1-.3,1.18l-16.11,9.3-.31,1.17,9.56,16.65,1.18.32,16.17-9.3a.86.86,0,0,1,1.21.37,146.64,146.64,0,0,1,14.33,62A.85.85,0,0,1,356.47,210.5Z"/><rect class="cls-2" x="169.66" y="127.21" width="83.21" height="20.62"/><rect class="cls-2" x="190.41" y="168.96" width="41.55" height="20.54"/></g></g></svg>